<?xml version="1.0" encoding="utf-8"?>
<!-- Generator: Adobe Illustrator 19.2.1, SVG Export Plug-In . SVG Version: 6.00 Build 0)  -->
<svg version="1.1" id="Layer_1" xmlns="http://www.w3.org/2000/svg" xmlns:xlink="http://www.w3.org/1999/xlink" x="0px" y="0px"
	 viewBox="0 0 14.2 14" style="enable-background:new 0 0 14.2 14;" xml:space="preserve">
<style type="text/css">
	.st0{fill:#9D9D9D;}
</style>
<g>
	<g>
		<path class="st0" d="M13.8,1.8l-1.5-1.5c-0.4-0.4-1.1-0.4-1.5,0L1.3,9.9c-0.1,0.1-0.2,0.3-0.2,0.5c0,0.1,0,0.2,0.1,0.3l-1.1,2.8
			c0,0.2,0,0.3,0.1,0.4C0.3,14,0.4,14,0.5,14h0.1l2.8-1.1C3.5,13,3.6,13,3.8,13s0.4-0.1,0.5-0.2l9.6-9.6c0.2-0.2,0.3-0.4,0.3-0.7
			S14,2,13.8,1.8z M1.7,11.2l1.2,1.2l-2,0.7L1.7,11.2z M3.8,12.4L3.8,12.4L3.8,12.4C3.8,12.3,3.8,12.3,3.8,12.4L3.8,12.4z M3.8,12.3
			l-1.7-1.7l-0.3-0.3l7.6-7.7l2.1,2.2L3.8,12.3z M13.5,2.9l-1.6,1.5L9.8,2.2l1.5-1.5c0.1-0.1,0.2-0.1,0.2-0.1c0.1,0,0.1,0,0.2,0.1
			l1.5,1.5c0.1,0.1,0.2,0.2,0.2,0.2C13.5,2.5,13.7,2.7,13.5,2.9z"/>
	</g>
</g>
</svg>
