<?xml version="1.0" encoding="utf-8"?>
<!-- Generator: Adobe Illustrator 19.2.1, SVG Export Plug-In . SVG Version: 6.00 Build 0)  -->
<svg version="1.1" id="Layer_1" xmlns="http://www.w3.org/2000/svg" xmlns:xlink="http://www.w3.org/1999/xlink" x="0px" y="0px"
	 viewBox="0 0 45.1 46.1" style="enable-background:new 0 0 45.1 46.1;" xml:space="preserve">
<style type="text/css">
	.st0{fill-rule:evenodd;clip-rule:evenodd;fill:#5E5E5E;}
</style>
<g>
	<g>
		<path class="st0" d="M43.9,40.3L29.6,26.1c1.9-2.7,3.1-5.9,3.1-9.4c0-8.9-7.2-16.1-16.1-16.1C7.8,0.6,0.5,7.8,0.5,16.7
			c0,8.9,7.2,16.1,16.1,16.1c3,0,5.8-0.8,8.2-2.2l14.5,14.5c0.4,0.4,1,0.6,1.5,0.6c0.6,0,1.1-0.2,1.5-0.6l1.5-1.5
			C44.7,42.6,44.7,41.2,43.9,40.3z M2.7,16.7c0-7.7,6.3-13.9,14-13.9c7.7,0,14,6.2,14,13.9c0,7.7-6.3,13.9-14,13.9
			C8.9,30.6,2.7,24.3,2.7,16.7z M40.8,43.4L26.6,29.2c0.6-0.5,1.1-0.9,1.6-1.5l14.1,14.1L40.8,43.4z"/>
	</g>
</g>
</svg>
