<?xml version="1.0" encoding="utf-8"?>
<!-- Generator: Adobe Illustrator 19.2.1, SVG Export Plug-In . SVG Version: 6.00 Build 0)  -->
<svg version="1.1" id="Layer_1" xmlns="http://www.w3.org/2000/svg" xmlns:xlink="http://www.w3.org/1999/xlink" x="0px" y="0px"
	 viewBox="0 0 20.1 20" style="enable-background:new 0 0 20.1 20;" xml:space="preserve">
<style type="text/css">
	.st0{fill:#3B3B3B;}
</style>
<path class="st0" d="M20.1,10c0-5.5-4.5-10-10-10C4.5,0,0,4.5,0,10c0,5.5,4.5,10,10,10c2.5,0,4.8-1,6.6-2.5c0,0,0,0,0,0
	C18.8,15.7,20.1,13,20.1,10z M0.9,10c0-5.1,4.1-9.2,9.2-9.2c5.1,0,9.2,4.1,9.2,9.2c0,2.6-1.1,5-2.9,6.7c-3.1-1.3-3.7-1.9-3.8-2.1V14
	c0.5-0.6,0.9-1.3,1.2-2.2c0.3-0.3,0.6-0.7,0.6-1.1c0.1-0.4,0-0.9-0.3-1.3V7.7c0-2.4-1.5-3.7-4-3.7c-2.5,0-4,1.4-4,3.7v1.7
	c-0.3,0.4-0.4,0.8-0.3,1.3c0.1,0.4,0.3,0.8,0.6,1.1c0.3,0.9,0.7,1.6,1.2,2.2v0.6c-0.1,0.2-0.7,0.8-3.9,2.1C2,15,0.9,12.6,0.9,10z
	 M4.5,17.3c3.2-1.4,3.8-2,4-2.5c0,0,0-0.1,0-0.1v-0.8c0-0.1,0-0.2-0.1-0.3c-0.5-0.5-0.9-1.3-1.2-2.1c0-0.1-0.1-0.2-0.2-0.2
	c-0.2-0.1-0.3-0.4-0.4-0.6c0-0.3,0-0.5,0.2-0.7C6.9,9.7,7,9.7,7,9.6V7.7c0-1.8,1.1-2.9,3.1-2.9c2.1,0,3.1,1,3.1,2.9v1.9
	c0,0.1,0,0.2,0.1,0.3c0.2,0.2,0.2,0.5,0.2,0.7c0,0.3-0.2,0.5-0.4,0.6c-0.1,0.1-0.1,0.1-0.2,0.2c-0.2,0.9-0.6,1.6-1.2,2.1
	c-0.1,0.1-0.1,0.2-0.1,0.3v0.8c0,0,0,0.1,0,0.1c0.1,0.3,0.3,0.9,3.9,2.5c-1.5,1.2-3.5,1.9-5.6,1.9C8,19.2,6.1,18.5,4.5,17.3z"/>
</svg>
