<?xml version="1.0" encoding="utf-8"?>
<!-- Generator: Adobe Illustrator 18.1.0, SVG Export Plug-In . SVG Version: 6.00 Build 0)  -->
<svg version="1.1" id="Layer_1" xmlns="http://www.w3.org/2000/svg" xmlns:xlink="http://www.w3.org/1999/xlink" x="0px" y="0px"
	 viewBox="87.2 88.2 420.9 418.9" enable-background="new 87.2 88.2 420.9 418.9" xml:space="preserve">
<path fill="#FF0000" d="M508.1,297.6c0-115.2-94.3-209.4-209.4-209.4C181.4,88.2,87.2,182.5,87.2,297.6S181.4,507,296.6,507
	c52.3,0,100.5-20.9,138.2-52.3l0,0C480.9,417,508.1,360.5,508.1,297.6z M106.1,297.6c0-106.8,85.8-192.7,192.7-192.7
	s192.7,85.8,192.7,192.7c0,54.4-23.1,104.7-60.7,140.3c-64.9-27.2-77.5-39.8-79.5-44v-12.6c10.5-12.6,18.9-27.2,25.1-46.1
	c6.3-6.3,12.6-14.6,12.6-23.1c2.1-8.3,0-18.9-6.3-27.2v-35.6c0-50.3-31.4-77.5-83.8-77.5s-83.8,29.3-83.8,77.5v35.6
	c-6.3,8.3-8.3,16.8-6.3,27.2c2.1,8.3,6.3,16.8,12.6,23.1c6.3,18.9,14.6,33.5,25.1,46.1v12.6c-2.1,4.2-14.6,16.8-81.7,44
	C129,402.3,106.1,352,106.1,297.6z M181.4,450.5c67-29.3,79.5-41.9,83.8-52.3V396v-16.8c0-2.1,0-4.2-2.1-6.3
	c-10.5-10.5-18.9-27.2-25.1-44c0-2.1-2.1-4.2-4.2-4.2c-4.2-2.1-6.3-8.3-8.3-12.6c0-6.3,0-10.5,4.2-14.6c2.1-6.3,4.2-6.3,4.2-8.3
	v-39.8c0-37.7,23.1-60.7,64.9-60.7c44,0,64.9,20.9,64.9,60.7v39.8c0,2.1,0,4.2,2.1,6.3c4.2,4.2,4.2,10.5,4.2,14.6
	c0,6.3-4.2,10.5-8.3,12.6c-2.1,2.1-2.1,2.1-4.2,4.2c-4.2,18.9-12.6,33.5-25.1,44c-2.1,2.1-2.1,4.2-2.1,6.3V394v2.1
	c2.1,6.3,6.3,18.9,81.7,52.3c-31.4,25.1-73.3,39.8-117.2,39.8C254.7,490.3,214.9,475.6,181.4,450.5z"/>
</svg>
