<?xml version="1.0" encoding="utf-8"?>
<!-- Generator: Adobe Illustrator 19.2.1, SVG Export Plug-In . SVG Version: 6.00 Build 0)  -->
<svg version="1.1" id="Layer_1" xmlns="http://www.w3.org/2000/svg" xmlns:xlink="http://www.w3.org/1999/xlink" x="0px" y="0px"
	 viewBox="0 0 15 3" style="enable-background:new 0 0 15 3;" xml:space="preserve">
<style type="text/css">
	.st0{fill-rule:evenodd;clip-rule:evenodd;fill:#3B3B3B;}
</style>
<g>
	<g>
		<path class="st0" d="M1.5,0C0.7,0,0,0.7,0,1.5C0,2.3,0.7,3,1.5,3C2.3,3,3,2.3,3,1.5C3,0.7,2.3,0,1.5,0z M7.5,0C6.7,0,6,0.7,6,1.5
			C6,2.3,6.7,3,7.5,3C8.3,3,9,2.3,9,1.5C9,0.7,8.3,0,7.5,0z M13.5,0C12.7,0,12,0.7,12,1.5C12,2.3,12.7,3,13.5,3
			C14.3,3,15,2.3,15,1.5C15,0.7,14.3,0,13.5,0z"/>
	</g>
</g>
</svg>
