<?xml version="1.0" encoding="utf-8"?>
<!-- Generator: Adobe Illustrator 18.1.0, SVG Export Plug-In . SVG Version: 6.00 Build 0)  -->
<svg version="1.1" id="Layer_1" xmlns="http://www.w3.org/2000/svg" xmlns:xlink="http://www.w3.org/1999/xlink" x="0px" y="0px"
	 viewBox="0 0 595.3 595.3" enable-background="new 0 0 595.3 595.3" xml:space="preserve">
<g>
	<g>
		<path fill="#E00000" d="M133.9,368.8H14.9C6.5,368.8,0,375.3,0,383v192.2c0,7.8,6.5,13.6,14.9,13.6h119.1
			c8.4,0,14.9-6.5,14.9-14.2V383C148.8,375.3,142.3,368.8,133.9,368.8z M122.9,562.9H25.9V394.7h97.1V562.9z M353.9,6.5H234.9
			c-8.4,0-14.9,6.5-14.9,14.9v553.2c0,8.4,6.5,14.9,14.9,14.9h119.1c8.4,0,14.9-6.5,14.9-14.9V21.4C368.8,12.9,362.3,6.5,353.9,6.5z
			 M342.9,562.9h-97.1V32.4h97.1V562.9z M580.4,148.8H461.3c-8.4,0-14.9,6.5-14.9,14.9v410.2c0,8.4,6.5,14.9,14.9,14.9h119.1
			c8.4,0,14.9-6.5,14.9-14.9V163.7C595.3,155.9,588.8,148.8,580.4,148.8z M569.4,562.9h-97.1V174.7h97.1V562.9z"/>
	</g>
</g>
<rect x="25.9" y="394.7" fill="#E00000" width="97.1" height="168.2"/>
<rect x="239" y="32.4" fill="#E00000" width="103.9" height="530.6"/>
<rect x="468" y="172.3" fill="#E00000" width="110" height="396"/>
</svg>
