<?xml version="1.0" encoding="utf-8"?>
<!-- Generator: Adobe Illustrator 19.2.1, SVG Export Plug-In . SVG Version: 6.00 Build 0)  -->
<svg version="1.1" id="Layer_1" xmlns="http://www.w3.org/2000/svg" xmlns:xlink="http://www.w3.org/1999/xlink" x="0px" y="0px"
	 viewBox="0 0 18 18" style="enable-background:new 0 0 18 18;" xml:space="preserve">
<style type="text/css">
	.st0{fill-rule:evenodd;clip-rule:evenodd;fill:#9E9E9E;}
</style>
<g>
	<g>
		<path class="st0" d="M9,0C4,0,0,4,0,9c0,5,4,9,9,9c5,0,9-4,9-9C18,4,14,0,9,0z M9,17c-4.4,0-8-3.6-8-8c0-4.4,3.6-8,8-8
			c4.4,0,8,3.6,8,8C17,13.4,13.4,17,9,17z M9,10.7L5.6,7L5,7.6L9,12l4-4.4L12.4,7L9,10.7z"/>
	</g>
</g>
</svg>
