<?xml version="1.0" encoding="utf-8"?>
<!-- Generator: Adobe Illustrator 19.2.1, SVG Export Plug-In . SVG Version: 6.00 Build 0)  -->
<svg version="1.1" id="Layer_1" xmlns="http://www.w3.org/2000/svg" xmlns:xlink="http://www.w3.org/1999/xlink" x="0px" y="0px"
	 viewBox="0 0 30 30" style="enable-background:new 0 0 30 30;" xml:space="preserve">
<style type="text/css">
	.st0{fill-rule:evenodd;clip-rule:evenodd;fill:#4B74A5;}
</style>
<g>
	<g>
		<path class="st0" d="M15,0C6.7,0,0,6.7,0,15c0,8.3,6.7,15,15,15s15-6.7,15-15C30,6.7,23.3,0,15,0z M15,28C7.8,28,2,22.2,2,15
			C2,7.8,7.8,2,15,2c7.2,0,13,5.8,13,13C28,22.2,22.2,28,15,28z M20.4,17.2c-1.3-1.2-1.1-1,0.4-3.1c0.9-1.3,1.3-2.1,1.2-2.4
			c-0.1-0.3-0.8-0.3-0.8-0.3l-2.3,0c0,0-0.2,0-0.3,0.1c-0.1,0.1-0.2,0.3-0.2,0.3s-0.4,1-0.8,1.9c-1,1.8-1.4,1.9-1.6,1.8
			c-0.4-0.3-0.3-1-0.3-1.6c0-1.7,0.3-2.4-0.5-2.6C15,11,14.8,11,14.2,11c-0.8,0-1.5,0-1.9,0.2c-0.3,0.1-0.5,0.4-0.3,0.4
			c0.1,0,0.5,0.1,0.7,0.3c0.2,0.3,0.2,1.1,0.2,1.1s0.1,2-0.3,2.3c-0.3,0.2-0.7-0.2-1.6-1.8c-0.5-0.8-0.8-1.8-0.8-1.8
			s-0.1-0.2-0.2-0.3c-0.1-0.1-0.3-0.1-0.3-0.1l-2.1,0c0,0-0.3,0-0.4,0.2c-0.1,0.1,0,0.4,0,0.4s1.7,4.1,3.6,6.2
			c1.7,1.9,3.7,1.8,3.7,1.8h0.9c0,0,0.3,0,0.4-0.2c0.1-0.1,0.1-0.4,0.1-0.4s0-1.3,0.5-1.5c0.6-0.2,1.3,1.2,2,1.7
			c0.6,0.4,1,0.3,1,0.3l2,0c0,0,1-0.1,0.6-0.9C21.8,18.9,21.6,18.3,20.4,17.2z"/>
	</g>
</g>
</svg>
