<?xml version="1.0" encoding="utf-8"?>
<!-- Generator: Adobe Illustrator 19.2.1, SVG Export Plug-In . SVG Version: 6.00 Build 0)  -->
<svg version="1.1" id="Layer_1" xmlns="http://www.w3.org/2000/svg" xmlns:xlink="http://www.w3.org/1999/xlink" x="0px" y="0px"
	 viewBox="0 0 29.1 36" style="enable-background:new 0 0 29.1 36;" xml:space="preserve">
<style type="text/css">
	.st0{fill-rule:evenodd;clip-rule:evenodd;fill:#FF0000;}
</style>
<g id="cooker-2">
</g>
<g>
	<g>
		<path class="st0" d="M28.4,13.9c-0.5-0.5-1.1-0.8-1.8-0.8h-0.7c-0.4,0-0.8,0.4-0.8,0.8c0,0.5,0.4,0.8,0.8,0.8h0.7
			c0.2,0,0.5,0.1,0.6,0.3c0.2,0.2,0.2,0.4,0.2,0.7c-0.4,2.8-1.6,5.2-3.4,7.1C23.2,20,20.7,18,17.7,18h-6.5c-3,0-5.5,2-6.3,4.8
			c-1.8-1.9-3-4.4-3.4-7.1c0-0.2,0-0.5,0.2-0.7c0.2-0.2,0.4-0.3,0.6-0.3h0.7c0.4,0,0.8-0.4,0.8-0.8c0-0.5-0.4-0.8-0.8-0.8H2.4
			c-0.7,0-1.4,0.3-1.8,0.8c-0.5,0.5-0.7,1.3-0.6,2c0.5,3.6,2.3,6.8,4.9,9.1c0.1,0.1,0.2,0.2,0.4,0.3c2.3,1.9,5.2,3.1,8.4,3.3v5.8
			h-2.4c-0.4,0-0.8,0.4-0.8,0.8c0,0.5,0.4,0.8,0.8,0.8h6.5c0.4,0,0.8-0.4,0.8-0.8c0-0.5-0.4-0.8-0.8-0.8h-2.4v-5.8
			c3.2-0.2,6.1-1.4,8.4-3.3c0.2-0.1,0.3-0.2,0.4-0.3c2.6-2.3,4.4-5.5,4.9-9.1C29.1,15.2,28.8,14.5,28.4,13.9z M14.5,27
			c-3,0-5.8-1.1-8.1-2.9c0.2-2.5,2.3-4.5,4.8-4.5h6.5c2.5,0,4.6,2,4.8,4.5C20.3,25.9,17.5,27,14.5,27z M7,15.1
			c0.2,1.2,1.2,2.1,2.4,2.1h10.2c1.2,0,2.2-0.9,2.4-2.1l1.2-7.5c0.3-1.9-0.2-3.8-1.5-5.3c-1.2-1.5-3-2.3-4.9-2.3h-4.6
			c-1.9,0-3.7,0.8-4.9,2.3C6,3.8,5.5,5.7,5.8,7.6L7,15.1z M8.5,3.4c0.9-1.1,2.3-1.7,3.7-1.7h4.6c1.4,0,2.8,0.6,3.7,1.7
			c0.9,1.1,1.3,2.5,1.1,4l-1.2,7.5c-0.1,0.4-0.4,0.7-0.8,0.7H9.4c-0.4,0-0.7-0.3-0.8-0.7L7.4,7.3C7.2,5.9,7.6,4.4,8.5,3.4z"/>
	</g>
</g>
</svg>
