<?xml version="1.0" encoding="utf-8"?>
<!-- Generator: Adobe Illustrator 19.2.1, SVG Export Plug-In . SVG Version: 6.00 Build 0)  -->
<svg version="1.1" id="Layer_1" xmlns="http://www.w3.org/2000/svg" xmlns:xlink="http://www.w3.org/1999/xlink" x="0px" y="0px"
	 viewBox="0 0 29.1 37.9" style="enable-background:new 0 0 29.1 37.9;" xml:space="preserve">
<style type="text/css">
	.st0{fill:#FF0000;}
</style>
<g id="cooker-2">
</g>
<g>
	<g>
		<path class="st0" d="M29,27.8c-0.3-8.8-4.1-14.7-4.3-15c-0.2-0.4-0.7-0.5-1.1-0.2c-0.4,0.2-0.4,0.7-0.2,1.1c0,0,2.5,3.9,3.6,9.9
			h-7.7c0.2-0.5,0.5-0.9,0.8-1.4c3.7-5.7,1.8-9.2,1.8-9.3c-0.2-0.4-0.7-0.5-1-0.3c-0.4,0.2-0.5,0.7-0.3,1.1c0.1,0.1,1.4,2.8-1.7,7.7
			c-0.5,0.8-1,1.7-1.3,2.6c-0.1,0.1-0.1,0.2-0.1,0.3c-1.3,3.3-1.5,6.9-1.2,9.5c0,0,0,0.1,0,0.1c0,0.1,0,0.2,0.1,0.3
			c0.1,0.6,0.1,1.1,0.2,1.6c0.2,1.3,1.4,2.2,2.6,2.2h6.9c1.1,0,2.1-0.7,2.5-1.8C28.9,34.7,29.1,32,29,27.8z M26.9,35.7
			c-0.2,0.4-0.6,0.7-1.1,0.7H19c-0.5,0-1-0.4-1.1-0.9c0-0.2-0.1-0.5-0.1-0.8h9.4C27.1,35.1,27,35.4,26.9,35.7z M27.4,33.1h-9.8
			c-0.1-2.3,0.1-5.2,1.1-7.9h8.6c0.1,0.9,0.2,1.7,0.2,2.7C27.5,30,27.5,31.8,27.4,33.1z M13.3,5.2c0.4-0.1,0.7-0.5,0.6-0.9
			c-0.1-0.4-0.5-0.7-0.9-0.7L12,3.9c-0.4,0.1-0.6,0.4-0.6,0.8v1.4c0,0.4,0.3,0.7,0.6,0.8L13,7.1c0,0,0.1,0,0.1,0
			c0.4,0,0.7-0.3,0.8-0.7C14,6,13.7,5.6,13.3,5.5l-0.4-0.1V5.3L13.3,5.2z M16.3,12.4c-0.3,0.3-0.4,0.8-0.1,1.1
			c0.2,0.2,0.4,0.3,0.6,0.3c0.2,0,0.3-0.1,0.5-0.2c1.6-1.3,2-3.1,2.1-4.4c0.5,0.3,0.8,0.8,1.1,1.2c0.1,0.3,0.4,0.4,0.7,0.4h2.9
			c0.4,0,0.7-0.3,0.8-0.6c0,0,0.5-2.2,2-3.2c0.6-0.4,0.8-1,0.6-1.7C27,4.1,24.6,3,21.7,3l-2,0l-4.2,0h0c-0.2,0-0.4,0.1-0.5,0.2
			c-0.1,0.1-0.2,0.4-0.2,0.6v3.1c0,0.4,0.3,0.7,0.7,0.8C16,7.8,16.9,8,17.9,8.4C17.9,9.2,17.8,11.2,16.3,12.4z M16.4,6.2V4.6l3.4,0
			l2,0c2.4,0,3.8,0.8,4.1,1.2c-1.4,1-2.1,2.6-2.4,3.5h-1.9C20.3,7.3,17.6,6.5,16.4,6.2z M4.6,6.8L4,7.2C3.6,7.4,3.5,7.9,3.7,8.3
			c0.1,0.2,0.4,0.4,0.7,0.4c0.1,0,0.3,0,0.4-0.1l0.7-0.4C5.8,7.9,5.9,7.4,5.7,7C5.5,6.7,5,6.5,4.6,6.8z M1.3,8.8L0.6,9.3
			C0.3,9.5,0.2,10,0.4,10.3c0.1,0.2,0.4,0.4,0.7,0.4c0.1,0,0.3,0,0.4-0.1l0.7-0.4C2.5,10,2.6,9.5,2.4,9.1C2.1,8.7,1.7,8.6,1.3,8.8z
			 M9.1,5.2C9.1,5.2,9.1,5.2,9.1,5.2C9.1,5.1,9.1,5,9.1,5c0,0,0,0,0,0c0,0,0,0,0,0c0,0,0,0-0.1-0.1c0,0-0.1-0.1-0.1-0.1
			c0,0,0,0-0.1-0.1c0,0,0,0,0,0L8.1,4.3C7.8,4,7.3,4.2,7.1,4.5C7,4.7,7,4.8,7,5C6.9,5.1,6.8,5.2,6.8,5.4c0,0.2,0.1,0.3,0.1,0.4
			c0,0.1,0,0.3,0.1,0.4c0.1,0.2,0.4,0.4,0.7,0.4c0.1,0,0.3,0,0.4-0.1l0.6-0.4l0,0l0,0c0,0,0,0,0.1-0.1c0,0,0.1-0.1,0.1-0.1
			c0,0,0,0,0.1-0.1c0,0,0,0,0,0c0,0,0,0,0,0c0,0,0-0.1,0-0.1c0,0,0-0.1,0-0.1c0,0,0-0.1,0-0.1c0,0,0,0,0-0.1
			C9.2,5.3,9.1,5.3,9.1,5.2C9.1,5.3,9.1,5.2,9.1,5.2z M1.6,6.2c0.4,0,0.8-0.4,0.8-0.8c0-0.4-0.3-0.8-0.8-0.8H0.8
			C0.4,4.6,0,4.9,0,5.4c0,0.4,0.3,0.8,0.8,0.8H1.6z M5.4,2.6L4.8,2.2C4.4,2,3.9,2.1,3.7,2.5C3.5,2.8,3.6,3.3,4,3.6L4.6,4
			C4.8,4,4.9,4.1,5,4.1c0.3,0,0.5-0.1,0.7-0.4C5.9,3.3,5.8,2.8,5.4,2.6z M2.1,0.5L1.4,0.1C1.1-0.1,0.6,0,0.4,0.4
			C0.2,0.8,0.3,1.2,0.6,1.5l0.7,0.4C1.4,2,1.6,2,1.7,2C2,2,2.2,1.9,2.4,1.6C2.6,1.2,2.5,0.8,2.1,0.5z"/>
	</g>
</g>
</svg>
