<?xml version="1.0" encoding="utf-8"?>
<!-- Generator: Adobe Illustrator 19.2.1, SVG Export Plug-In . SVG Version: 6.00 Build 0)  -->
<svg version="1.1" id="Layer_1" xmlns="http://www.w3.org/2000/svg" xmlns:xlink="http://www.w3.org/1999/xlink" x="0px" y="0px"
	 viewBox="0 0 36 32" style="enable-background:new 0 0 36 32;" xml:space="preserve">
<style type="text/css">
	.st0{fill-rule:evenodd;clip-rule:evenodd;fill:#FF0000;}
</style>
<g>
	<g>
		<path class="st0" d="M34.7,1.7C32.8-0.1,29.5,0,27,0.4c-0.6,0.1-1.4,0-2.1-0.1c-1.5-0.3-3.4-0.6-5.3,0.9c-1.2,1-1.6,1.9-1.9,2.5
			c-0.4,0.8-0.6,1.2-1.9,1.5c-2.7,0.7-6,2.3-7,4.6c-1.1,2.5-3.1,2.6-3.1,2.6c-0.3,0-0.5,0.1-0.7,0.4c-0.8,0.1-1.6,0.8-2.5,2.1
			c-2.1,3.3-3.9,9.9-1,13.6c1.6,2.1,3.9,3.3,6.8,3.5c0.3,0,0.6,0,0.8,0c4.7,0,10.3-2.8,15.1-7.5C32.3,16.4,35.2,11.7,35.9,6
			C36.1,4.1,35.7,2.7,34.7,1.7z M27.3,2.2C27.3,2.2,27.3,2.2,27.3,2.2c-2.3,2.5-3.4,5.3-3.8,7.5C23,6.6,23.9,3.3,24.4,2
			c0.1,0,0.1,0,0.2,0C25.5,2.2,26.4,2.3,27.3,2.2z M16.3,7c0.2-0.1,0.4-0.1,0.5-0.2c-0.9,3.5-1,6.4-0.7,8.7
			c-1.4-3.1-1.6-6.6-1.6-7.9C15.1,7.4,15.7,7.2,16.3,7z M8.3,13.2C8,14.8,7.8,16.8,8,18.8c-0.5-1.1-1-2.4-1.2-3.9
			c0-0.3-0.1-0.6-0.2-0.9C7.1,13.9,7.7,13.7,8.3,13.2z M34.1,5.8c-0.6,5.3-3.4,9.5-11.3,17.4c-4.7,4.7-10.1,7.3-14.5,7
			C6.1,30,4.2,29,2.9,27.3c-1.4-1.8-1.5-5-0.3-8.5C3.5,16.4,4.5,15,5,14.7c0,0.1,0.1,0.3,0.1,0.5c0.8,5.9,5,9.4,5.2,9.5
			c0.3,0.3,0.9,0.3,1.2,0c0.3-0.3,0.4-0.8,0.1-1.2C7.8,18,11.1,10.1,11.1,10c0.1-0.1,0.1-0.3,0.1-0.4c0.4-0.4,0.9-0.8,1.5-1.1
			c0.2,2.8,1,9.1,5.1,12.3c0.2,0.1,0.4,0.2,0.6,0.2c0.2,0,0.4-0.1,0.6-0.2c0.3-0.3,0.4-0.8,0.2-1.1c0-0.1-3.3-6.1,0.3-15.2
			c0.1-0.1,0.1-0.3,0.1-0.4c0.2-0.4,0.6-0.9,1.2-1.4c0.6-0.5,1.2-0.7,1.8-0.7c-0.8,2.5-2.1,8.2,0.8,12.3c0.2,0.2,0.4,0.4,0.7,0.4
			c0.1,0,0.2,0,0.3-0.1c0.4-0.1,0.6-0.5,0.6-0.9c0-0.1-0.5-6.7,5.1-11.4C30.1,2.1,30.1,2,30.2,2c1.5,0,2.6,0.4,3.3,1
			C34,3.6,34.3,4.5,34.1,5.8z"/>
	</g>
</g>
</svg>
