<?xml version="1.0" encoding="utf-8"?>
<!-- Generator: Adobe Illustrator 19.2.1, SVG Export Plug-In . SVG Version: 6.00 Build 0)  -->
<svg version="1.1" id="Layer_1" xmlns="http://www.w3.org/2000/svg" xmlns:xlink="http://www.w3.org/1999/xlink" x="0px" y="0px"
	 viewBox="0 0 35.4 33" style="enable-background:new 0 0 35.4 33;" xml:space="preserve">
<style type="text/css">
	.st0{fill:#FF0000;}
</style>
<g id="cooker-2">
</g>
<g>
	<g>
		<path class="st0" d="M34.6,4.4h-0.5c-2,0-4,2.1-4,4.2v4.6h-29c-0.4,0-0.7,0.3-0.7,0.7v2.3c0,2.5,1.1,5.1,2.9,6.8
			c-1.2,1-1.9,2.5-1.9,4.2C1.4,30.4,4,33,7.1,33s5.7-2.5,5.7-5.7c0-0.8-0.2-1.5-0.5-2.2h5.8c-0.3,0.7-0.5,1.4-0.5,2.2
			c0,3.1,2.6,5.7,5.7,5.7c3.2,0,5.7-2.5,5.7-5.7c0-1.3-0.5-2.6-1.3-3.5c2.4-1.6,3.7-4.3,3.7-7.5V8.7c0-1.3,1.3-2.8,2.5-2.8h0.5
			c0.4,0,0.7-0.3,0.7-0.7C35.4,4.8,35.1,4.4,34.6,4.4z M7.1,31.5c-2.3,0-4.2-1.9-4.2-4.2c0-2.3,1.9-4.2,4.2-4.2
			c2.3,0,4.2,1.9,4.2,4.2C11.4,29.6,9.5,31.5,7.1,31.5z M23.5,31.5c-2.3,0-4.2-1.9-4.2-4.2c0-2.3,1.9-4.2,4.2-4.2
			c2.3,0,4.2,1.9,4.2,4.2C27.7,29.6,25.8,31.5,23.5,31.5z M30.2,16.3c0,2.9-1.2,5.1-3.3,6.5c-0.9-0.7-2.1-1.1-3.4-1.1
			c-1.7,0-3.3,0.8-4.3,2h-7.7c-1.1-1.2-2.6-2-4.3-2c-0.9,0-1.8,0.2-2.6,0.6c-1.6-1.5-2.7-3.8-2.7-6v-1.5h28.3V16.3z M2.6,11.8
			c0.4,0,0.7-0.3,0.7-0.7V9.9c0-4.6,3.3-8.4,7.3-8.4h0.6c-2,1.7-3.3,4.9-3.3,8.4v1.2c0,0.4,0.3,0.7,0.7,0.7c0.4,0,0.7-0.3,0.7-0.7
			V9.9c0-4.6,2.5-8.4,5.4-8.4c0,0,0.1,0,0.1,0H17c-2,1.7-3.3,4.9-3.3,8.4v1.2c0,0.4,0.3,0.7,0.7,0.7c0.4,0,0.7-0.3,0.7-0.7V9.9
			c0-4.6,2.5-8.4,5.4-8.4c0.4,0,0.7-0.3,0.7-0.7c0-0.3-0.2-0.6-0.5-0.7C20.7,0,20.6,0,20.5,0h-9.9C5.8,0,1.9,4.4,1.9,9.9v1.2
			C1.9,11.5,2.2,11.8,2.6,11.8z M6.6,26.8c-0.1,0.1-0.2,0.3-0.2,0.5c0,0.2,0.1,0.4,0.2,0.5C6.7,28,6.9,28,7.1,28
			c0.2,0,0.4-0.1,0.5-0.2c0.1-0.1,0.2-0.3,0.2-0.5c0-0.2-0.1-0.4-0.2-0.5C7.4,26.5,6.9,26.5,6.6,26.8z M23,26.8
			c-0.1,0.1-0.2,0.3-0.2,0.5c0,0.2,0.1,0.4,0.2,0.5c0.1,0.1,0.3,0.2,0.5,0.2c0.2,0,0.4-0.1,0.5-0.2c0.1-0.1,0.2-0.3,0.2-0.5
			c0-0.2-0.1-0.4-0.2-0.5C23.7,26.5,23.2,26.5,23,26.8z"/>
	</g>
</g>
</svg>
