<?xml version="1.0" encoding="utf-8"?>
<!-- Generator: Adobe Illustrator 19.2.1, SVG Export Plug-In . SVG Version: 6.00 Build 0)  -->
<svg version="1.1" id="Layer_1" xmlns="http://www.w3.org/2000/svg" xmlns:xlink="http://www.w3.org/1999/xlink" x="0px" y="0px"
	 viewBox="0 0 33 33" style="enable-background:new 0 0 33 33;" xml:space="preserve">
<style type="text/css">
	.st0{fill-rule:evenodd;clip-rule:evenodd;fill:#FF0000;}
</style>
<path class="st0" d="M31.9,16.7V9.5h-1.1V4h-5.4l-1.1-4L14,4H3.7v0H3.2C1.5,4,0.1,5.4,0,7.2h0v21.8C0,31.2,1.9,33,4.3,33h27.5v-7.5
	H33v-8.7H31.9z M29.6,5.1v4.4H27V7.7h-0.7l-0.7-2.6H29.6z M25.8,8.9v0.6H3.7V8.9H25.8z M23.4,1.5l1.6,6.2H7.4L23.4,1.5z M3.2,5.1
	h0.3v0H11L4.2,7.7H2.6v1.6C1.8,9.1,1.2,8.3,1.2,7.3C1.2,6.1,2.1,5.1,3.2,5.1z M30.7,31.8H4.3c-1.8,0-3.2-1.2-3.2-2.9V9.9
	c0.4,0.4,0.9,0.6,1.4,0.7v0.1h28.1v6.1h-7.2c-2.4,0-4.3,2-4.3,4.4c0,2.4,1.9,4.4,4.3,4.4h7.2V31.8z M31.9,24.3h-8.3
	c-1.7,0-3.2-1.5-3.2-3.2c0-1.7,1.4-3.2,3.2-3.2h8.3V24.3z M21.5,21.1c0,1.1,0.9,2,2,2c1.1,0,2-0.9,2-2c0-1.1-0.9-2-2-2
	C22.4,19.1,21.5,20,21.5,21.1z M24.4,21.1c0,0.5-0.4,0.9-0.9,0.9c-0.5,0-0.9-0.4-0.9-0.9c0-0.5,0.4-0.9,0.9-0.9
	C24,20.2,24.4,20.6,24.4,21.1z"/>
</svg>
