<?xml version="1.0" encoding="utf-8"?>
<!-- Generator: Adobe Illustrator 19.2.1, SVG Export Plug-In . SVG Version: 6.00 Build 0)  -->
<svg version="1.1" id="Layer_1" xmlns="http://www.w3.org/2000/svg" xmlns:xlink="http://www.w3.org/1999/xlink" x="0px" y="0px"
	 viewBox="0 0 40.5 34.5" style="enable-background:new 0 0 40.5 34.5;" xml:space="preserve">
<style type="text/css">
	.st0{fill:#FF0000;}
</style>
<path class="st0" d="M13.9,27.8c0.4,0,1.2,0,1.6-0.7c0.2-0.4,0.3-0.7,0.3-2c0-1.6-0.1-2-0.3-2.3c-0.4-0.7-1.1-0.8-1.7-0.8
	c-0.4,0-0.9,0.1-1.3,0.3C12,22.7,12,23.5,12,24.6c0,1.5,0,2.1,0.4,2.6C12.9,27.8,13.7,27.8,13.9,27.8z M13.4,23.6
	c0-0.1,0.1-0.5,0.5-0.5c0.3,0,0.4,0.2,0.5,0.5c0,0.2,0,0.9,0,1.2c0,0,0,1,0,1.2c0,0.2,0,0.6-0.5,0.6c-0.5,0-0.5-0.5-0.5-0.9
	c0-0.3,0-0.5,0-0.8C13.4,24.6,13.4,23.9,13.4,23.6z M17.2,27.8c0.1,0,0.3,0,0.5-0.2c0.2-0.2,0.2-0.5,0.2-0.7v-1.1h0.5
	c1,0,1.6-0.1,1.6-1.7c0-1.8-0.6-1.9-1.6-1.9h-1c-0.2,0-0.5,0-0.7,0.2c-0.2,0.2-0.2,0.5-0.2,0.7v3.8c0,0.3,0,0.6,0.2,0.8
	C16.9,27.7,17,27.8,17.2,27.8z M18,23.2c0.4,0,0.6,0,0.7,0.2c0,0.1,0.1,0.2,0.1,0.5c0,0.1,0,0.5-0.2,0.6c-0.1,0.1-0.2,0.1-0.5,0.1
	V23.2z M24.8,27.7c0,0,0.2,0,0.2,0c0.1,0,0.4,0,0.6-0.4c0.1-0.2,0.1-0.3,0.1-0.5v-1.5c0-0.9,0-1.1-0.2-1.9c0.2,0.7,0.2,0.9,0.4,1.5
	l0.6,1.8c0.2,0.6,0.3,0.9,1,0.9c0.3,0,0.4,0,0.6-0.1c0.3-0.2,0.3-0.5,0.3-0.8v-3.9c0-0.3,0-0.7-0.4-0.8c-0.1,0-0.2,0-0.2,0
	c-0.2,0-0.4,0.1-0.4,0.1c-0.2,0.2-0.2,0.5-0.2,0.7v1.3c0,0.8,0,1.1,0.2,2L26.3,23c-0.3-0.8-0.3-0.9-1-0.9c-0.3,0-0.7,0-0.8,0.4
	c-0.1,0.2-0.1,0.4-0.1,0.8v3.6C24.4,27.2,24.4,27.6,24.8,27.7z M21.5,27.7H23c0.2,0,0.4,0,0.6-0.2c0.1-0.1,0.2-0.2,0.2-0.4
	c0-0.1,0-0.2-0.1-0.4c-0.2-0.2-0.4-0.2-0.6-0.2H22v-1.2h0.9c0.2,0,0.6,0,0.7-0.4c0-0.1,0-0.2,0-0.2c0-0.1,0-0.3-0.1-0.4
	c-0.2-0.2-0.4-0.2-0.6-0.2H22v-1h1c0.2,0,0.5,0,0.6-0.2c0.1-0.1,0.2-0.2,0.2-0.4c0-0.6-0.6-0.6-0.8-0.6h-1.5c-0.2,0-0.5,0-0.7,0.2
	c-0.3,0.2-0.3,0.5-0.3,0.8v3.8c0,0.3,0,0.5,0.2,0.7C21,27.7,21.2,27.7,21.5,27.7z M37.1,19.1H3.4v12h33.6V19.1z M35.7,29.7H4.8v-9.2
	h30.9V29.7z M23.9,5.9c0.3-0.5,0.4-1.2,0.4-1.8c0-2.3-1.8-4.1-4.1-4.1c-2.3,0-4.1,1.8-4.1,4.1c0,0.6,0.1,1.2,0.4,1.7L0,16v18.5h40.5
	V16L23.9,5.9z M20.3,1.4c1.5,0,2.7,1.2,2.7,2.7c0,1.5-1.2,2.7-2.7,2.7c-1.5,0-2.7-1.2-2.7-2.7C17.5,2.6,18.7,1.4,20.3,1.4z
	 M17.3,6.9c0.8,0.8,1.8,1.3,3,1.3c1.1,0,2.1-0.4,2.9-1.2l14.3,8.7H3.1L17.3,6.9z M39.1,33.1H1.4V17.1h37.8V33.1z"/>
</svg>
