<?xml version="1.0" encoding="utf-8"?>
<!-- Generator: Adobe Illustrator 19.2.1, SVG Export Plug-In . SVG Version: 6.00 Build 0)  -->
<svg version="1.1" id="Layer_1" xmlns="http://www.w3.org/2000/svg" xmlns:xlink="http://www.w3.org/1999/xlink" x="0px" y="0px"
	 viewBox="0 0 31 29" style="enable-background:new 0 0 31 29;" xml:space="preserve">
<style type="text/css">
	.st0{fill:#FF0000;}
</style>
<g>
	<g>
		<path class="st0" d="M27.9,11.3c-0.4,0-0.7,0.3-0.7,0.6v15.8H14.2V17c0-0.3-0.3-0.6-0.7-0.6H8.3c-0.4,0-0.7,0.3-0.7,0.6v10.7H3.7
			V12c0-0.3-0.3-0.6-0.7-0.6S2.4,11.6,2.4,12v16.4c0,0.3,0.3,0.6,0.7,0.6h24.8c0.4,0,0.7-0.3,0.7-0.6V12
			C28.6,11.6,28.3,11.3,27.9,11.3z M12.9,27.7H9V17.6h3.9V27.7z M22.7,21.4c0.4,0,0.7-0.3,0.7-0.6V17c0-0.3-0.3-0.6-0.7-0.6h-5.2
			c-0.4,0-0.7,0.3-0.7,0.6v3.8c0,0.3,0.3,0.6,0.7,0.6H22.7z M18.2,17.7h3.9v2.5h-3.9V17.7z M30.9,6.3l-4.8-6C25.9,0.1,25.7,0,25.5,0
			h-20C5.3,0,5.1,0.1,5,0.2l-4.9,6C0,6.4,0,6.5,0,6.7c0,1.1,0.4,2,1.1,2.6c1.5,1.2,4.2,1.2,5.4-0.5c0.1,0.2,0.3,0.4,0.5,0.5
			c1.5,1.2,4.2,1.2,5.4-0.5c0.1,0.2,0.3,0.4,0.5,0.5c0.7,0.6,1.5,0.9,2.5,0.9c1.1,0,2.3-0.5,3-1.4c0.1,0.2,0.3,0.4,0.5,0.5
			c1.5,1.2,4.2,1.2,5.4-0.5c1.8,2.4,6.6,1.6,6.6-2.1C31,6.5,30.9,6.4,30.9,6.3z M27.4,8.9c-1.2,0-2.3-0.7-2.3-2.2
			c0-0.3-0.3-0.6-0.7-0.6c-0.4,0-0.7,0.3-0.7,0.6c0,2.3-2.7,2.7-3.9,1.7c-0.5-0.4-0.7-1-0.7-1.7c0-0.3-0.3-0.6-0.7-0.6
			c-0.4,0-0.7,0.3-0.7,0.6c0,2.3-2.7,2.7-3.9,1.7c-0.5-0.4-0.7-1-0.7-1.7c0-0.3-0.3-0.6-0.7-0.6c-0.4,0-0.7,0.3-0.7,0.6
			C11.9,9,9.1,9.3,8,8.3c-0.5-0.4-0.7-1-0.7-1.7C7.2,6.3,7,6,6.6,6C6.2,6,5.9,6.3,5.9,6.7C5.9,9,3.2,9.3,2,8.3
			C1.6,8,1.4,7.5,1.3,6.9l4.5-5.6h19.3l4.5,5.6C29.6,8.2,28.5,8.9,27.4,8.9z"/>
	</g>
</g>
</svg>
