<?xml version="1.0" encoding="utf-8"?>
<!-- Generator: Adobe Illustrator 19.2.1, SVG Export Plug-In . SVG Version: 6.00 Build 0)  -->
<svg version="1.1" id="Layer_1" xmlns="http://www.w3.org/2000/svg" xmlns:xlink="http://www.w3.org/1999/xlink" x="0px" y="0px"
	 viewBox="0 0 18 18" style="enable-background:new 0 0 18 18;" xml:space="preserve">
<style type="text/css">
	.st0{fill-rule:evenodd;clip-rule:evenodd;fill:#9D9C9C;}
</style>
<g>
	<g>
		<path class="st0" d="M5.4,15h7.2c0.2,0,0.4-0.2,0.4-0.5c0-0.3-0.2-0.5-0.4-0.5H5.4C5.2,14,5,14.2,5,14.5C5,14.8,5.2,15,5.4,15z
			 M5.4,13c0,0,1.1,0,2.5,0c2.1,0,4.7,0,4.7,0c0.2,0,0.4-0.2,0.4-0.5c0-0.3-0.2-0.5-0.4-0.5H5.4C5.2,12,5,12.2,5,12.5
			C5,12.8,5.2,13,5.4,13z M16,5L16,5l-0.2-4.6c0-0.2-0.2-0.4-0.4-0.4h-13C2.2,0,2,0.2,2,0.4l0,4.5C2,4.9,2,5,2,5H2
			C0.9,5,0,5.9,0,7.1v7.5C0,14.8,0.2,15,0.4,15H3v2.6C3,17.8,3.2,18,3.4,18h11.3c0.2,0,0.4-0.2,0.4-0.4V15h2.6
			c0.2,0,0.4-0.2,0.4-0.4V7.1C18,5.9,17.1,5,16,5z M3,1h12v4H3V1z M14,14v1v2H4v-2v-1v-3h10V14z M17,14h-2v-3h0.6
			c0.2,0,0.4-0.2,0.4-0.5c0-0.3-0.2-0.5-0.4-0.5h-1c0,0,0,0,0,0H3.4c0,0,0,0,0,0h-1C2.2,10,2,10.2,2,10.5C2,10.8,2.2,11,2.4,11H3v3
			H1V7c0-0.7,0.4-1,1-1h14c0.6,0,1,0.3,1,1V14z M3,7C2.5,7,2,7.4,2,8c0,0.6,0.4,1,1,1c0.6,0,1-0.4,1-1C4,7.4,3.6,7,3,7z M3,8.3
			C2.8,8.3,2.7,8.2,2.7,8c0-0.2,0.1-0.3,0.3-0.3c0.2,0,0.3,0.1,0.3,0.3C3.3,8.2,3.2,8.3,3,8.3z"/>
	</g>
</g>
</svg>
