<?xml version="1.0" encoding="utf-8"?>
<!-- Generator: Adobe Illustrator 19.2.1, SVG Export Plug-In . SVG Version: 6.00 Build 0)  -->
<svg version="1.1" id="Layer_1" xmlns="http://www.w3.org/2000/svg" xmlns:xlink="http://www.w3.org/1999/xlink" x="0px" y="0px"
	 viewBox="0 0 28.4 31.6" style="enable-background:new 0 0 28.4 31.6;" xml:space="preserve">
<style type="text/css">
	.st0{fill:none;stroke:#FF0000;stroke-width:1.5;stroke-linecap:round;stroke-linejoin:round;stroke-miterlimit:10;}
</style>
<g id="coffee">
	<g>
		<path class="st0" d="M20,11.9V9.8H2.8v6.5c0,4.7,3.8,8.6,8.6,8.6c3.3,0,6.1-1.8,7.6-4.5"/>
		<path class="st0" d="M24.1,10.7c-1.5-0.4-3,0.1-4.1,1.2v4.5c0,1.5-0.4,2.8-1,4.1c0.6,0.8,1.4,1.4,2.4,1.6c2.6,0.6,5.3-1.4,6.1-4.5
			C28.1,14.3,26.7,11.3,24.1,10.7z"/>
	</g>
	<ellipse transform="matrix(0.237 -0.9715 0.9715 0.237 1.4711 34.5201)" class="st0" cx="22.7" cy="16.3" rx="2.5" ry="2.1"/>
	<path class="st0" d="M17.1,30.4H8.2c-1.3,0-2.5-0.3-3.6-1l-3.8-2.3h23.3l-3,2.1C19.9,30,18.5,30.4,17.1,30.4z"/>
	<path class="st0" d="M13.1,7.4c-2.1,0-3.9-1.7-3.9-3.9c0-1.5,1.2-2.7,2.7-2.7c1.1,0,1.9,0.9,1.9,1.9c0,0.8-0.6,1.4-1.4,1.4
		c-0.5,0-1-0.4-1-1"/>
</g>
<g id="cooker-2">
</g>
</svg>
