<?xml version="1.0" encoding="utf-8"?>
<!-- Generator: Adobe Illustrator 19.2.1, SVG Export Plug-In . SVG Version: 6.00 Build 0)  -->
<svg version="1.1" id="Layer_1" xmlns="http://www.w3.org/2000/svg" xmlns:xlink="http://www.w3.org/1999/xlink" x="0px" y="0px"
	 viewBox="0 0 34 32" style="enable-background:new 0 0 34 32;" xml:space="preserve">
<style type="text/css">
	.st0{fill:#FF0000;}
</style>
<g id="cooker-2">
</g>
<g>
	<g>
		<path class="st0" d="M32.3,24.4c-3.9,4-9.2,6.2-14.8,6.2c-5.7,0-10.9-2.2-14.8-6.2c-0.3-0.3-0.7-0.3-1,0c-0.3,0.3-0.3,0.7,0,1
			c4.2,4.3,9.8,6.6,15.9,6.6c6.1,0,11.7-2.4,15.9-6.6c0.3-0.3,0.3-0.7,0-1C33,24.1,32.6,24.1,32.3,24.4z M9.3,20.4l-0.8,5.7
			c-0.1,0.4,0.2,0.8,0.6,0.8c0,0,0.1,0,0.1,0c0.4,0,0.7-0.3,0.7-0.6l0.8-5.8c0-1.5,1.3-2.7,2.9-2.7h7.6c1.6,0,2.8,1.2,2.9,2.8
			l0.8,5.7c0.1,0.4,0.4,0.7,0.8,0.6c0.4-0.1,0.7-0.4,0.6-0.8l-0.8-5.6c-0.1-2.3-2-4.1-4.3-4.1h-7.6C11.3,16.4,9.4,18.2,9.3,20.4z
			 M18.4,13c1.4,0,3-0.3,4.7-1.4c0.3-0.2,0.5-0.6,0.3-1c-0.2-0.3-0.7-0.4-1-0.2c-4.3,2.5-7.4,0.2-7.6,0.1c-0.3-0.2-0.8-0.2-1,0.1
			c-0.3,0.3-0.2,0.8,0.1,1C13.9,11.7,15.7,13,18.4,13z M31.2,8.8c-1.7-1.1-3.5-0.7-4.3-0.4c-0.7-0.5-1.6-0.8-2.5-0.8h-9.9
			C12.6,1.8,6.9,0.4,4.4,0C3.5-0.1,2.5,0.4,2.3,1.3L0,8.6C-0.1,9.2,0.2,9.8,0.7,10l1.2,0.6c0.5,0.2,1.1,0.1,1.4-0.2l2.4-2.1L6.1,25
			c0,0.4,0.3,0.7,0.7,0.7h0c0.4,0,0.7-0.3,0.7-0.7L7.2,7.7c0-0.5-0.3-0.9-0.8-1.1c-0.5-0.2-1,0-1.3,0.3L2.4,9.2L1.5,8.8l2.1-7.1
			C3.7,1.5,4,1.4,4.2,1.4c2.2,0.3,7.6,1.7,9.1,7.1C13.4,8.8,13.6,9,14,9h10.5c1.6,0,2.9,1.3,2.9,2.8V25c0,0.4,0.3,0.7,0.7,0.7
			s0.7-0.3,0.7-0.7V11.9c0,0,0,0,0,0c0.2,0,0.3,0,0.4,0.1c0.9,0.5,1.2,3.2,1.2,4.9c0,0.4,0.3,0.7,0.7,0.7h0c0.4,0,0.7-0.3,0.7-0.7
			c0-0.8,0-5-1.9-6.1c-0.3-0.2-0.8-0.3-1.4-0.2c-0.1-0.3-0.2-0.6-0.4-0.9c0.7-0.1,1.5-0.1,2.3,0.4c1.5,1,2.2,3.6,2.1,7.5
			c0,0.4,0.3,0.7,0.7,0.7h0c0.4,0,0.7-0.3,0.7-0.7C34.1,13.1,33.2,10.1,31.2,8.8z M4.5,3.5C4.4,3.6,4.3,3.8,4.3,4
			c0,0.2,0.1,0.4,0.2,0.5C4.6,4.7,4.8,4.7,5,4.7c0.2,0,0.4-0.1,0.5-0.2C5.7,4.4,5.8,4.2,5.8,4c0-0.2-0.1-0.4-0.2-0.5
			C5.3,3.2,4.8,3.2,4.5,3.5z"/>
	</g>
</g>
</svg>
