<?xml version="1.0" encoding="utf-8"?>
<!-- Generator: Adobe Illustrator 19.2.1, SVG Export Plug-In . SVG Version: 6.00 Build 0)  -->
<svg version="1.1" id="Layer_1" xmlns="http://www.w3.org/2000/svg" xmlns:xlink="http://www.w3.org/1999/xlink" x="0px" y="0px"
	 viewBox="0 0 45.6 46.8" style="enable-background:new 0 0 45.6 46.8;" xml:space="preserve">
<style type="text/css">
	.st0{fill:#5E5E5E;}
	.st1{fill:none;stroke:#5E5E5E;stroke-width:1.5;stroke-miterlimit:10;}
</style>
<g>
	<g>
		<path class="st0" d="M44.4,40.7L30.1,26.5c1.9-2.7,3.1-5.9,3.1-9.4C33.2,8.2,26,1,17.1,1C8.3,1,1,8.2,1,17.1s7.2,16.1,16.1,16.1
			c3,0,5.8-0.8,8.2-2.2l14.5,14.5c0.4,0.4,1,0.6,1.5,0.6c0.6,0,1.1-0.2,1.5-0.6l1.5-1.5C45.2,43,45.2,41.6,44.4,40.7z M3.2,17.1
			c0-7.7,6.3-13.9,14-13.9s14,6.2,14,13.9S24.9,31,17.2,31C9.4,31,3.2,24.7,3.2,17.1z M41.3,43.8L27.1,29.6c0.6-0.5,1.1-0.9,1.6-1.5
			l14.1,14.1L41.3,43.8z"/>
	</g>
	<g>
		<path class="st1" d="M44.4,40.7L30.1,26.5c1.9-2.7,3.1-5.9,3.1-9.4C33.2,8.2,26,1,17.1,1C8.3,1,1,8.2,1,17.1s7.2,16.1,16.1,16.1
			c3,0,5.8-0.8,8.2-2.2l14.5,14.5c0.4,0.4,1,0.6,1.5,0.6c0.6,0,1.1-0.2,1.5-0.6l1.5-1.5C45.2,43,45.2,41.6,44.4,40.7z M3.2,17.1
			c0-7.7,6.3-13.9,14-13.9s14,6.2,14,13.9S24.9,31,17.2,31C9.4,31,3.2,24.7,3.2,17.1z M41.3,43.8L27.1,29.6c0.6-0.5,1.1-0.9,1.6-1.5
			l14.1,14.1L41.3,43.8z"/>
	</g>
</g>
</svg>
