<?xml version="1.0" encoding="utf-8"?>
<!-- Generator: Adobe Illustrator 18.1.0, SVG Export Plug-In . SVG Version: 6.00 Build 0)  -->
<svg version="1.1" id="Layer_1" xmlns="http://www.w3.org/2000/svg" xmlns:xlink="http://www.w3.org/1999/xlink" x="0px" y="0px"
	 viewBox="0 0 612 792" enable-background="new 0 0 612 792" xml:space="preserve">
<path fill="#C1BBC4" d="M125.1,686.4c-4.5,0-4.5,0-8.9-4.5c-4.5-4.5-4.5-8.9-4.5-13.4l62.5-201L4.5,337.9C0,337.9,0,329,0,324.5
	c0-4.5,26.8-4.5,31.3-4.5h201c0,0,53.6-201,58.1-205.5s4.5-8.9,8.9-8.9c4.5,0,13.4,4.5,13.4,8.9l67,210h187.6c4.5,0,44.7,0,44.7,4.5
	c0,8.9,0,4.5-4.5,8.9L437.8,467.5l62.5,201c0,4.5,0,8.9-4.5,13.4s-8.9,4.5-13.4,0L308.2,561.3L134,681.9
	C129.5,686.4,125.1,686.4,125.1,686.4z"/>
</svg>
