<?xml version="1.0" encoding="utf-8"?>
<!-- Generator: Adobe Illustrator 19.2.1, SVG Export Plug-In . SVG Version: 6.00 Build 0)  -->
<svg version="1.1" id="Layer_1" xmlns="http://www.w3.org/2000/svg" xmlns:xlink="http://www.w3.org/1999/xlink" x="0px" y="0px"
	 viewBox="0 0 13.7 13" style="enable-background:new 0 0 13.7 13;" xml:space="preserve">
<style type="text/css">
	.st0{fill:#FAE000;}
</style>
<path class="st0" d="M2.8,13c-0.1,0-0.1,0-0.2-0.1c-0.1-0.1-0.1-0.2-0.1-0.3l1.4-4.5L0.1,5.2C0,5.2,0,5,0,4.9s0.6-0.1,0.7-0.1h4.5
	c0,0,1.2-4.5,1.3-4.6S6.6,0,6.7,0S7,0.1,7,0.2l1.5,4.7h4.2c0.1,0,1,0,1,0.1c0,0.2,0,0.1-0.1,0.2L9.8,8.1l1.4,4.5
	c0,0.1,0,0.2-0.1,0.3s-0.2,0.1-0.3,0l-3.9-2.7L3,12.9C2.9,13,2.8,13,2.8,13z"/>
</svg>
