<?xml version="1.0" encoding="utf-8"?>
<!-- Generator: Adobe Illustrator 19.2.1, SVG Export Plug-In . SVG Version: 6.00 Build 0)  -->
<svg version="1.1" id="Layer_1" xmlns="http://www.w3.org/2000/svg" xmlns:xlink="http://www.w3.org/1999/xlink" x="0px" y="0px"
	 viewBox="0 0 30 30" style="enable-background:new 0 0 30 30;" xml:space="preserve">
<style type="text/css">
	.st0{fill:#0C6EBA;}
</style>
<g>
	<g>
		<path class="st0" d="M5.2,0v6H0v12h5.3v12h17.3l7.5-7.5V0H5.2z M1.5,16.5v-9h18v9H1.5z M22.5,28.2v-5.7h5.7L22.5,28.2z M28.5,21
			H21v7.5H6.8V18H21V6H6.8V1.5h21.7V21z M7.4,9.7C7.3,9.5,7.1,9.4,6.8,9.3c-0.2-0.1-0.6-0.2-1-0.2H4v4.8h1.8c0.4,0,0.7,0,0.9-0.1
			c0.2-0.1,0.4-0.2,0.6-0.5c0.1-0.2,0.2-0.5,0.3-0.8c0.1-0.3,0.1-0.7,0.1-1.1c0-0.4,0-0.7-0.1-1C7.6,10.2,7.5,9.9,7.4,9.7z
			 M6.6,12.3c0,0.2-0.1,0.4-0.1,0.5c-0.1,0.1-0.2,0.2-0.3,0.3c-0.1,0.1-0.3,0.1-0.5,0.1H5.1V9.8h0.5c0.2,0,0.4,0,0.5,0.1
			c0.1,0.1,0.2,0.2,0.3,0.3c0.1,0.1,0.1,0.3,0.1,0.5c0,0.2,0,0.4,0,0.7C6.6,11.8,6.6,12.1,6.6,12.3z M12.6,9.7
			c-0.1-0.2-0.3-0.4-0.6-0.5c-0.3-0.1-0.6-0.2-1-0.2c-0.4,0-0.8,0.1-1,0.2C9.8,9.3,9.6,9.5,9.5,9.7c-0.1,0.2-0.2,0.5-0.3,0.8
			c0,0.3-0.1,0.6-0.1,1c0,0.4,0,0.7,0.1,1c0,0.3,0.1,0.6,0.3,0.8c0.1,0.2,0.3,0.4,0.6,0.5c0.3,0.1,0.6,0.2,1,0.2
			c0.4,0,0.8-0.1,1-0.2c0.3-0.1,0.4-0.3,0.6-0.5c0.1-0.2,0.2-0.5,0.3-0.8c0-0.3,0.1-0.6,0.1-1c0-0.4,0-0.7-0.1-1
			C12.9,10.2,12.8,9.9,12.6,9.7z M11.8,12.3c0,0.2-0.1,0.4-0.1,0.6c-0.1,0.1-0.1,0.2-0.2,0.3c-0.1,0.1-0.2,0.1-0.4,0.1
			c-0.2,0-0.3,0-0.4-0.1c-0.1-0.1-0.2-0.2-0.2-0.3c-0.1-0.1-0.1-0.3-0.1-0.6c0-0.2,0-0.5,0-0.8s0-0.6,0-0.8c0-0.2,0.1-0.4,0.1-0.6
			c0.1-0.1,0.1-0.2,0.2-0.3c0.1-0.1,0.2-0.1,0.4-0.1c0.2,0,0.3,0,0.4,0.1c0.1,0.1,0.2,0.2,0.2,0.3c0.1,0.1,0.1,0.3,0.1,0.6
			c0,0.2,0,0.5,0,0.8S11.8,12.1,11.8,12.3z M16.8,12.7c0,0.2-0.1,0.3-0.1,0.4c-0.1,0.1-0.1,0.1-0.2,0.2c-0.1,0-0.2,0-0.3,0
			c-0.1,0-0.2,0-0.3-0.1c-0.1,0-0.2-0.1-0.2-0.2c-0.1-0.1-0.1-0.3-0.1-0.5c0-0.2,0-0.5,0-0.9c0-0.3,0-0.6,0-0.9
			c0-0.2,0.1-0.4,0.1-0.6c0.1-0.1,0.1-0.3,0.2-0.3c0.1-0.1,0.2-0.1,0.4-0.1c0.3,0,0.4,0.1,0.5,0.2c0.1,0.2,0.1,0.4,0.1,0.8H18
			c0-0.2,0-0.4,0-0.6c0-0.2-0.1-0.4-0.2-0.6c-0.1-0.2-0.3-0.3-0.5-0.4c-0.2-0.1-0.6-0.2-1-0.2c-0.4,0-0.8,0.1-1,0.2
			c-0.3,0.1-0.4,0.3-0.6,0.5c-0.1,0.2-0.2,0.5-0.3,0.8c0,0.3-0.1,0.6-0.1,1c0,0.4,0,0.7,0.1,1c0,0.3,0.1,0.6,0.3,0.8
			c0.1,0.2,0.3,0.4,0.6,0.5c0.3,0.1,0.6,0.2,1,0.2c0.4,0,0.7-0.1,0.9-0.1c0.2-0.1,0.4-0.2,0.5-0.4c0.1-0.2,0.2-0.4,0.3-0.6
			c0-0.2,0.1-0.5,0.1-0.7h-1.1C16.9,12.3,16.9,12.6,16.8,12.7z"/>
	</g>
</g>
</svg>
