<?xml version="1.0" encoding="utf-8"?>
<!-- Generator: Adobe Illustrator 19.2.1, SVG Export Plug-In . SVG Version: 6.00 Build 0)  -->
<svg version="1.1" id="Layer_1" xmlns="http://www.w3.org/2000/svg" xmlns:xlink="http://www.w3.org/1999/xlink" x="0px" y="0px"
	 viewBox="0 0 30 30" style="enable-background:new 0 0 30 30;" xml:space="preserve">
<style type="text/css">
	.st0{fill:#D20707;}
</style>
<g>
	<g>
		<path class="st0" d="M5.3,0v6H0v12h5.3v12h17.3l7.5-7.5V0H5.3z M1.5,16.5v-9h18v9H1.5z M22.5,28.2v-5.7h5.7L22.5,28.2z M28.5,21
			H21v7.5H6.8V18H21V6H6.8V1.5h21.8V21z M7.1,9.5C7,9.3,6.8,9.2,6.6,9.1C6.4,9,6.2,9,5.9,9H4v5h1.1v-2h0.6c0.3,0,0.5,0,0.7-0.1
			c0.2-0.1,0.4-0.2,0.5-0.3c0.2-0.1,0.3-0.3,0.4-0.5c0.1-0.2,0.1-0.4,0.1-0.7c0-0.2,0-0.4-0.1-0.6C7.3,9.8,7.2,9.6,7.1,9.5z
			 M6.1,11.1c-0.1,0.1-0.3,0.2-0.5,0.2H5.1V9.7h0.5c0.3,0,0.5,0.1,0.6,0.2c0.1,0.1,0.2,0.3,0.2,0.6C6.3,10.8,6.3,11,6.1,11.1z
			 M12.1,9.7c-0.1-0.2-0.3-0.4-0.5-0.5C11.3,9.1,11,9,10.6,9H8.8v5h1.7c0.4,0,0.7-0.1,0.9-0.2c0.2-0.1,0.4-0.3,0.6-0.5
			c0.1-0.2,0.2-0.5,0.3-0.8c0.1-0.3,0.1-0.7,0.1-1.1c0-0.4,0-0.7-0.1-1C12.3,10.1,12.2,9.9,12.1,9.7z M11.3,12.3
			c0,0.2-0.1,0.4-0.1,0.6c-0.1,0.1-0.2,0.2-0.3,0.3c-0.1,0.1-0.3,0.1-0.5,0.1H9.9V9.7h0.5c0.2,0,0.4,0,0.5,0.1
			c0.1,0.1,0.2,0.2,0.3,0.3c0.1,0.1,0.1,0.3,0.1,0.5c0,0.2,0,0.5,0,0.8C11.3,11.8,11.3,12.1,11.3,12.3z M13.9,14H15v-2.2h1.8V11H15
			V9.8h2V9h-3.1V14z"/>
	</g>
</g>
</svg>
