<?xml version="1.0" encoding="utf-8"?>
<!-- Generator: Adobe Illustrator 19.2.1, SVG Export Plug-In . SVG Version: 6.00 Build 0)  -->
<svg version="1.1" id="Layer_1" xmlns="http://www.w3.org/2000/svg" xmlns:xlink="http://www.w3.org/1999/xlink" x="0px" y="0px"
	 viewBox="0 0 30 30" style="enable-background:new 0 0 30 30;" xml:space="preserve">
<style type="text/css">
	.st0{fill:#6A089D;}
</style>
<g>
	<g>
		<path class="st0" d="M5.2,0v6H0v12h5.3v12h17.3l7.5-7.5V0H5.2z M1.5,16.5v-9h18v9H1.5z M22.5,28.2v-5.7h5.7L22.5,28.2z M28.5,21
			H21v7.5H6.7V18H21V6H6.7V1.5h21.8V21z M8.3,9.8V9H5.1v0.8h1.9l-2,3.4V14h3.4v-0.8H6.3L8.3,9.8z M9.8,14h1.1V9H9.8V14z M15.7,9.5
			c-0.1-0.1-0.3-0.3-0.5-0.3C15,9,14.7,9,14.5,9h-2v5h1.1v-2h0.6c0.3,0,0.5,0,0.7-0.1c0.2-0.1,0.4-0.2,0.6-0.3
			c0.2-0.1,0.3-0.3,0.4-0.5c0.1-0.2,0.1-0.4,0.1-0.7c0-0.2,0-0.4-0.1-0.6C15.9,9.8,15.8,9.6,15.7,9.5z M14.7,11.1
			c-0.1,0.1-0.3,0.2-0.5,0.2h-0.5V9.7h0.5c0.3,0,0.5,0.1,0.6,0.2c0.1,0.1,0.2,0.3,0.2,0.6C14.9,10.8,14.8,11,14.7,11.1z"/>
	</g>
</g>
</svg>
