<?xml version="1.0" encoding="utf-8"?>
<!-- Generator: Adobe Illustrator 19.2.1, SVG Export Plug-In . SVG Version: 6.00 Build 0)  -->
<svg version="1.1" id="Layer_1" xmlns="http://www.w3.org/2000/svg" xmlns:xlink="http://www.w3.org/1999/xlink" x="0px" y="0px"
	 viewBox="0 0 55.4 54.7" style="enable-background:new 0 0 55.4 54.7;" xml:space="preserve">
<style type="text/css">
	.st0{fill-rule:evenodd;clip-rule:evenodd;fill:#FA453C;}
</style>
<g>
	<g>
		<path class="st0" d="M55.3,51.2V3.9c-0.2-0.8,0.3-6.4-4.8-2.7c-5,3.3-18.6,12.4-18.6,12.4s-3.5,3.3-8.5,0
			C16.8,9.3,4.5,1.2,4.5,1.2S0.2-2.3,0,3.6c0,11.2,0,48,0,48s0,4.1,3.7,2.8C5.4,53.3,7.3,52,8.9,51c2.6-2.2,2.6-5.5,2.6-5.5
			s0-3.7,0-5.4c0-6,4-1.8,4-1.8s5.4,3.6,7.8,5.3c4.8,2.5,8,0.2,8,0.2s6.9-4.6,9.5-6.4c3.2-2.5,3,2.6,3,2.6v3.8c0,0-0.4,3.9,2.6,6.5
			c1.5,1.2,3.3,2.6,4.9,3.9C56.1,56.3,55.3,51.2,55.3,51.2z M41.2,26c0,0-10.5,7-10.5,7s-3,1.9-6.5,0c-3.2-2.2-10.8-7.2-10.8-7.2
			s-2-0.6-2-3.6c0-0.8,0-2.6,0-2.6s-0.2-3.9,2.8-1.5c2.7,1.8,6.9,4.6,9.9,6.6c3.1,2.4,6.7,0,6.7,0s6.8-4.6,11.1-7.5
			c1.9-1.4,1.6,1.1,1.6,1.1l0,3.2C43.5,21.7,43.9,24.1,41.2,26z"/>
	</g>
</g>
</svg>
