<?xml version="1.0" encoding="utf-8"?>
<!-- Generator: Adobe Illustrator 19.2.1, SVG Export Plug-In . SVG Version: 6.00 Build 0)  -->
<svg version="1.1" id="Layer_1" xmlns="http://www.w3.org/2000/svg" xmlns:xlink="http://www.w3.org/1999/xlink" x="0px" y="0px"
	 viewBox="0 0 24 33" style="enable-background:new 0 0 24 33;" xml:space="preserve">
<style type="text/css">
	.st0{fill-rule:evenodd;clip-rule:evenodd;fill:#FF0000;}
	.st1{fill-rule:evenodd;clip-rule:evenodd;fill:#FFFFFF;}
	.st2{fill-rule:evenodd;clip-rule:evenodd;fill:#FFF000;}
</style>
<path class="st0" d="M23.8,14c0,0-1.1,4.6-3.7,9.3C17.4,28.1,13.1,33,12,33c-1.2,0-5.6-4.9-8.3-9.8C1.2,18.6,0.3,14,0.3,14H23.8z"/>
<path class="st0" d="M12,0c6.6,0,12,5.3,12,11.9c0,6.6-5.4,11.9-12,11.9c-6.6,0-12-5.3-12-11.9C0,5.3,5.4,0,12,0z"/>
<path class="st1" d="M12,1.9c5.6,0,10.1,4.5,10.1,10.1c0,5.6-4.5,10.1-10.1,10.1C6.4,22.1,1.9,17.6,1.9,12C1.9,6.4,6.4,1.9,12,1.9z"
	/>
<path class="st2" d="M12,3.7c4.6,0,8.4,3.7,8.4,8.4c0,4.6-3.7,8.4-8.4,8.4c-4.6,0-8.4-3.7-8.4-8.4C3.7,7.4,7.4,3.7,12,3.7z"/>
</svg>
