<?xml version="1.0" encoding="utf-8"?>
<!-- Generator: Adobe Illustrator 19.2.1, SVG Export Plug-In . SVG Version: 6.00 Build 0)  -->
<svg version="1.1" id="Layer_1" xmlns="http://www.w3.org/2000/svg" xmlns:xlink="http://www.w3.org/1999/xlink" x="0px" y="0px"
	 viewBox="0 0 41.4 25" style="enable-background:new 0 0 41.4 25;" xml:space="preserve">
<style type="text/css">
	.st0{fill:#FF0000;}
</style>
<path class="st0" d="M30.8,5.8v6.8H38v-1.5l-2.3-5.3H30.8z M32.2,11.3V7.2h2.7l1.8,4.1H32.2z M37.4,3.8h-7.4V0H0v22.3h2.4
	C2.6,23.8,3.9,25,5.5,25c1.4,0,2.5-0.9,2.9-2.1c0.4,1.2,1.6,2.1,2.9,2.1c1.6,0,2.9-1.2,3.1-2.7h16.6c0.2,1.5,1.5,2.7,3.1,2.7
	c1.6,0,2.9-1.2,3.1-2.7h4.2v-9.7L37.4,3.8z M5.5,23.6c-1,0-1.7-0.8-1.7-1.7c0-0.9,0.8-1.7,1.7-1.7s1.7,0.8,1.7,1.7
	C7.3,22.9,6.5,23.6,5.5,23.6z M11.4,23.6c-1,0-1.7-0.8-1.7-1.7c0-0.9,0.8-1.7,1.7-1.7c1,0,1.7,0.8,1.7,1.7
	C13.1,22.9,12.4,23.6,11.4,23.6z M28.7,20.9H14.3c-0.4-1.2-1.6-2.1-2.9-2.1c-1.4,0-2.5,0.9-2.9,2.1c-0.4-1.2-1.6-2.1-2.9-2.1
	c-1.4,0-2.5,0.9-2.9,2.1H1.4V1.4h27.3V20.9z M34.2,23.6c-1,0-1.7-0.8-1.7-1.7c0-0.9,0.8-1.7,1.7-1.7c1,0,1.7,0.8,1.7,1.7
	C36,22.9,35.2,23.6,34.2,23.6z M40.1,20.9h-2.9c-0.4-1.2-1.6-2.1-2.9-2.1c-1.4,0-2.5,0.9-2.9,2.1h-1.2V5.1h6.5l3.6,7.7V20.9z"/>
</svg>
