<?xml version="1.0" encoding="utf-8"?>
<!-- Generator: Adobe Illustrator 19.2.1, SVG Export Plug-In . SVG Version: 6.00 Build 0)  -->
<svg version="1.1" id="Layer_1" xmlns="http://www.w3.org/2000/svg" xmlns:xlink="http://www.w3.org/1999/xlink" x="0px" y="0px"
	 viewBox="0 0 37 43" style="enable-background:new 0 0 37 43;" xml:space="preserve">
<style type="text/css">
	.st0{fill:#FF0000;}
</style>
<path class="st0" d="M37,11.9l-5.2-5.4l-2.8,3c-2.2-1.6-4.9-2.7-7.7-3.2V6.1H22c1.8,0,3.2-1.3,3.2-3C25.2,1.4,23.8,0,22,0h-7.3
	c-1.7,0-3.2,1.4-3.2,3.2c0,1.7,1.4,3,3.2,3h0.8v0.2C6.7,7.8,0,15.4,0,24.6C0,34.7,8.2,43,18.4,43c10.1,0,18.4-8.3,18.4-18.4
	c0-3.5-1-6.8-2.7-9.6L37,11.9z M31.8,8.6l3.2,3.3l-1.8,1.8c-0.9-1.2-1.9-2.3-3.1-3.3L31.8,8.6z M14.7,4.7c-0.8,0-1.7-0.5-1.7-1.5
	c0-1,0.8-1.7,1.7-1.7H22c1,0,1.7,0.8,1.7,1.7c0,1-0.9,1.5-1.8,1.5h-2.2v1.5c-0.5,0-1-0.1-1.4-0.1c-0.5,0-1,0-1.4,0.1V4.7H14.7z
	 M35.3,24.6c0,9.4-7.6,17-16.9,17c-9.3,0-16.9-7.6-16.9-17c0-9.4,7.6-17,16.9-17C27.7,7.6,35.3,15.2,35.3,24.6z M18.4,9.4
	C10,9.4,3.2,16.2,3.2,24.6c0,8.4,6.8,15.2,15.1,15.2c8.3,0,15.1-6.8,15.1-15.2C33.5,16.2,26.7,9.4,18.4,9.4z M18,23.1v-6.7l0.4-1
	l0.4,1v6.7l0.3,0.2c0.3,0.2,0.4,0.5,0.4,0.9c0,0.6-0.5,1.1-1.1,1.1c-0.6,0-1.1-0.5-1.1-1.1c0-0.3,0.2-0.7,0.4-0.9L18,23.1z
	 M27.8,18.8c0.1,0.2,0.4,0.4,0.6,0.4c0.1,0,0.3,0,0.4-0.1l1.6-1c0.9,1.7,1.5,3.7,1.6,5.8h-3.6c-0.4,0-0.7,0.3-0.7,0.7
	c0,0.4,0.3,0.7,0.7,0.7H32c-0.1,1.9-0.6,3.6-1.3,5.2c0,0-0.1,0-0.1-0.1l-1.8-1.1c-0.3-0.2-0.8-0.1-1,0.2c-0.2,0.3-0.1,0.8,0.2,1
	l1.8,1.1c0,0,0.1,0,0.1,0.1c-1,1.7-2.4,3.2-4.1,4.3c0-0.1-0.1-0.2-0.1-0.3l-1.1-1.4c-0.2-0.3-0.7-0.4-1-0.1c-0.3,0.2-0.4,0.7-0.1,1
	l1.1,1.4c0,0.1,0.1,0.1,0.1,0.1c-1.7,0.9-3.6,1.5-5.7,1.6v-3.2c0-0.4-0.3-0.7-0.7-0.7c-0.4,0-0.7,0.3-0.7,0.7v3.2
	c-2-0.1-4-0.7-5.7-1.6c0,0,0.1-0.1,0.1-0.1l1.1-1.4c0.2-0.3,0.2-0.8-0.1-1c-0.3-0.2-0.8-0.2-1,0.1l-1.1,1.4
	c-0.1,0.1-0.1,0.2-0.1,0.3c-1.7-1.1-3.1-2.6-4.1-4.3c0,0,0.1,0,0.1-0.1l1.8-1.1c0.3-0.2,0.5-0.6,0.2-1c-0.2-0.3-0.6-0.5-1-0.2
	l-1.8,1.1c0,0-0.1,0-0.1,0.1c-0.8-1.6-1.2-3.4-1.3-5.2h3.6C8.7,25.3,9,25,9,24.6c0-0.4-0.3-0.7-0.7-0.7H4.7c0.1-2.1,0.7-4,1.6-5.8
	l1.6,1c0.1,0.1,0.2,0.1,0.4,0.1c0.2,0,0.5-0.1,0.6-0.4c0.2-0.3,0.1-0.8-0.2-1l-1.6-1c1.1-1.6,2.4-2.9,4-3.9l0.9,1.2
	c0.1,0.2,0.4,0.3,0.6,0.3c0.2,0,0.3,0,0.4-0.1c0.3-0.2,0.4-0.7,0.1-1l-0.8-1.1c1.6-0.8,3.4-1.3,5.3-1.4v2.4l-1.1,2.9v6.3
	c-0.5,0.5-0.7,1.1-0.7,1.8c0,1.4,1.1,2.5,2.5,2.5c1.4,0,2.5-1.1,2.5-2.5c0-0.7-0.3-1.3-0.7-1.8v-6.3l-1.1-2.9v-2.4
	c1.9,0.1,3.7,0.6,5.3,1.4l-0.8,1.1c-0.2,0.3-0.2,0.8,0.1,1c0.1,0.1,0.3,0.1,0.4,0.1c0.2,0,0.4-0.1,0.6-0.3l0.9-1.2
	c1.6,1,3,2.3,4,3.9l-1.6,1C27.7,18,27.6,18.5,27.8,18.8z"/>
</svg>
