<?xml version="1.0" encoding="utf-8"?>
<!-- Generator: Adobe Illustrator 19.2.1, SVG Export Plug-In . SVG Version: 6.00 Build 0)  -->
<svg version="1.1" id="Layer_1" xmlns="http://www.w3.org/2000/svg" xmlns:xlink="http://www.w3.org/1999/xlink" x="0px" y="0px"
	 viewBox="0 0 32 30" style="enable-background:new 0 0 32 30;" xml:space="preserve">
<style type="text/css">
	.st0{fill:#FF0000;}
</style>
<g>
	<g>
		<path class="st0" d="M12.2,7.3c0.1,0.1,0.3,0.2,0.5,0.2c0.2,0,0.3-0.1,0.5-0.2L15,5.5c0.3-0.3,0.3-0.7,0-0.9
			c-0.3-0.3-0.7-0.3-0.9,0l-1.4,1.4l-2.5-2.5c-0.3-0.3-0.7-0.3-0.9,0c-0.3,0.3-0.3,0.7,0,0.9L12.2,7.3z M12.6,13.8
			c1.8,0,3.6-0.7,4.9-2c2.7-2.7,2.7-7,0-9.7c-1.3-1.3-3-2-4.9-2c-1.8,0-3.6,0.7-4.9,2c-2.7,2.7-2.7,7,0,9.7
			C9.1,13,10.8,13.8,12.6,13.8z M8.7,3c1.1-1,2.5-1.6,3.9-1.6c1.5,0,2.9,0.6,3.9,1.6c2.2,2.2,2.2,5.7,0,7.8c-1.1,1-2.5,1.6-3.9,1.6
			c-1.5,0-2.9-0.6-3.9-1.6C6.5,8.6,6.5,5.1,8.7,3z M31.1,17.1l-2.2-1.5l-2.2-5c-0.1-0.2-0.3-0.4-0.6-0.4h-5.5
			c-0.4,0-0.7,0.3-0.7,0.7c0,0.4,0.3,0.7,0.7,0.7h0.7v12H4.1c0,0,0,0,0,0H3.9v-1.9c0-0.4-0.3-0.7-0.7-0.7c-0.4,0-0.7,0.3-0.7,0.7
			v2.6c0,0.4,0.3,0.7,0.7,0.7h0.1v1.9c0,0.4,0.3,0.7,0.7,0.7h1.3C5.7,28.9,7,30,8.6,30c1.5,0,2.8-1.1,3.2-2.5h11.1
			c0.3,1.4,1.6,2.5,3.2,2.5c1.6,0,2.9-1.1,3.2-2.5h2.1c0.4,0,0.7-0.3,0.7-0.7v-8.1C32,18.1,31.7,17.5,31.1,17.1z M5.4,26.1H4.7v-1.3
			H6C5.7,25.2,5.5,25.6,5.4,26.1z M8.6,28.7c-1.1,0-1.9-0.9-1.9-1.9c0-1.1,0.9-1.9,1.9-1.9c1.1,0,1.9,0.9,1.9,1.9
			C10.6,27.8,9.7,28.7,8.6,28.7z M22.8,26.2h-11c-0.1-0.5-0.3-1-0.6-1.4h12.2C23.1,25.2,22.9,25.7,22.8,26.2z M26.1,28.7
			c-1.1,0-1.9-0.9-1.9-1.9c0-1.1,0.9-1.9,1.9-1.9c1.1,0,1.9,0.9,1.9,1.9C28,27.8,27.1,28.7,26.1,28.7z M30.7,26.2h-1.4
			c-0.1-0.5-0.3-0.9-0.6-1.3h2V26.2z M30.7,23.5h-8v-12h3l2.1,4.8c0.1,0.1,0.1,0.2,0.2,0.3l2.4,1.6c0.2,0.1,0.3,0.3,0.3,0.5V23.5z
			 M3.3,14.2c0.4,0,0.7-0.3,0.7-0.7v-2h0.7c0.4,0,0.7-0.3,0.7-0.7c0-0.4-0.3-0.7-0.7-0.7H3.3c-0.4,0-0.7,0.3-0.7,0.7v2.7
			C2.6,13.9,2.9,14.2,3.3,14.2z M5.3,18.9c0-0.4-0.3-0.7-0.7-0.7H2c-0.4,0-0.7,0.3-0.7,0.7s0.3,0.7,0.7,0.7h2.7
			C5,19.5,5.3,19.2,5.3,18.9z M6.7,16.2c0-0.4-0.3-0.7-0.7-0.7H0.7c-0.4,0-0.7,0.3-0.7,0.7s0.3,0.7,0.7,0.7H6
			C6.4,16.9,6.7,16.6,6.7,16.2z"/>
	</g>
</g>
</svg>
