<?xml version="1.0" encoding="utf-8"?>
<!-- Generator: Adobe Illustrator 19.2.1, SVG Export Plug-In . SVG Version: 6.00 Build 0)  -->
<svg version="1.1" id="Layer_1" xmlns="http://www.w3.org/2000/svg" xmlns:xlink="http://www.w3.org/1999/xlink" x="0px" y="0px"
	 viewBox="0 0 23.3 18.1" style="enable-background:new 0 0 23.3 18.1;" xml:space="preserve">
<style type="text/css">
	.st0{fill:#3B3B3B;}
</style>
<g>
	<g>
		<path class="st0" d="M11.3,14c-0.6-0.3-0.6-1.9-0.6-1.9s9.8,0,10,0c0.3,0,0.8,0.1,1-1s1.4-8,1.4-8H8.7c-1.3-3.2-3.2-3-3.2-3H1.6
			c0,0-1.9,0.2-1.2,2c0.5,0.8,2,0.7,2.3-0.2c0.1-0.4,0-0.8,0-0.8h3c0,0,1.1,0.3,1.5,1.3c1.7,4.2,2.3,9.9,2.7,11.2
			C10.2,14.8,11,15,11,15h2h1.4h3.5h2.6v-1 M10.5,11.1c-0.3-1.6-1-4.8-1.5-7h12.7l-1,7H10.5z"/>
	</g>
</g>
<path class="st0" d="M12.5,14.3c-1,0-1.9,0.8-1.9,1.9c0,1,0.8,1.9,1.9,1.9c1,0,1.9-0.8,1.9-1.9C14.3,15.1,13.5,14.3,12.5,14.3z
	 M12.5,17.3c-0.6,0-1.1-0.5-1.1-1.1s0.5-1.1,1.1-1.1s1.1,0.5,1.1,1.1S13.1,17.3,12.5,17.3z"/>
<path class="st0" d="M19.9,14.3c-1,0-1.9,0.8-1.9,1.9c0,1,0.8,1.9,1.9,1.9c1,0,1.9-0.8,1.9-1.9S21,14.3,19.9,14.3z M19.9,17.3
	c-0.6,0-1.1-0.5-1.1-1.1s0.5-1.1,1.1-1.1s1.1,0.5,1.1,1.1C21.1,16.8,20.6,17.3,19.9,17.3z"/>
</svg>
