<?xml version="1.0" encoding="utf-8"?>
<!-- Generator: Adobe Illustrator 19.2.1, SVG Export Plug-In . SVG Version: 6.00 Build 0)  -->
<svg version="1.1" id="Layer_1" xmlns="http://www.w3.org/2000/svg" xmlns:xlink="http://www.w3.org/1999/xlink" x="0px" y="0px"
	 viewBox="0 0 16 16" style="enable-background:new 0 0 16 16;" xml:space="preserve">
<style type="text/css">
	.st0{fill:#3B3B3B;}
</style>
<g>
	<g>
		<path class="st0" d="M3.6,10H0.4C0.2,10,0,10.2,0,10.4v5.2C0,15.8,0.2,16,0.4,16h3.2C3.8,16,4,15.8,4,15.6v-5.2
			C4,10.2,3.8,10,3.6,10z M3.2,15.2H0.8v-4.5h2.4V15.2z M9.6,0H6.4C6.2,0,6,0.2,6,0.4v15.2C6,15.8,6.2,16,6.4,16h3.2
			c0.2,0,0.4-0.2,0.4-0.4V0.4C10,0.2,9.8,0,9.6,0z M9.2,15.2H6.8V0.8h2.4V15.2z M15.6,4h-3.2C12.2,4,12,4.2,12,4.4v11.2
			c0,0.2,0.2,0.4,0.4,0.4h3.2c0.2,0,0.4-0.2,0.4-0.4V4.4C16,4.2,15.8,4,15.6,4z M15.2,15.2h-2.4V4.8h2.4V15.2z"/>
	</g>
</g>
</svg>
