<?xml version="1.0" encoding="utf-8"?>
<!-- Generator: Adobe Illustrator 19.2.1, SVG Export Plug-In . SVG Version: 6.00 Build 0)  -->
<svg version="1.1" id="Layer_1" xmlns="http://www.w3.org/2000/svg" xmlns:xlink="http://www.w3.org/1999/xlink" x="0px" y="0px"
	 viewBox="0 0 13 15" style="enable-background:new 0 0 13 15;" xml:space="preserve">
<style type="text/css">
	.st0{fill:#9D9D9D;}
</style>
<g>
	<g>
		<path class="st0" d="M4.7,13C4.7,13,4.7,13,4.7,13C4.9,13,5,12.8,5,12.7L4.6,5.3C4.6,5.1,4.5,5,4.3,5C4.1,5,4,5.2,4,5.3l0.4,7.4
			C4.4,12.9,4.5,13,4.7,13z M8.3,13C8.3,13,8.3,13,8.3,13c0.2,0,0.3-0.1,0.3-0.3L9,5.3C9,5.2,8.9,5,8.7,5C8.5,5,8.4,5.1,8.4,5.3
			L8,12.7C8,12.8,8.1,13,8.3,13z M12.1,3H9c0,0,0,0,0,0l0-1.5C9,0.7,8.3,0,7.3,0H5.7C4.7,0,4,0.7,4,1.5L4,3c0,0,0,0,0,0H0.9
			C0.4,3,0,3.2,0,3.5C0,3.8,0.4,4,0.9,4h0.1L2,14c0.1,0.5,0.3,1,1.5,1h6c1.4,0,1.4-0.5,1.5-1l0.9-10h0.1C12.6,4,13,3.8,13,3.5
			C13,3.2,12.6,3,12.1,3z M5,3V2c0-0.5,0.5-1,1-1h1c0.5,0,1,0.5,1,1v1c0,0,0,0,0,0L5,3C5,3,5,3,5,3z M10,13c-0.1,0.9,0,1-0.2,1H3.3
			C3.1,14,3,13.9,3,13L2.1,4h8.8L10,13z M6.6,13C6.6,13,6.6,13,6.6,13c0.2,0,0.3-0.1,0.3-0.3L6.8,5.3C6.7,5.1,6.6,5,6.4,5
			C6.2,5,6.1,5.2,6.1,5.3l0.1,7.4C6.3,12.9,6.4,13,6.6,13z"/>
	</g>
</g>
</svg>
