<?xml version="1.0" encoding="utf-8"?>
<!-- Generator: Adobe Illustrator 19.2.1, SVG Export Plug-In . SVG Version: 6.00 Build 0)  -->
<svg version="1.1" id="Layer_1" xmlns="http://www.w3.org/2000/svg" xmlns:xlink="http://www.w3.org/1999/xlink" x="0px" y="0px"
	 viewBox="0 0 92 90" style="enable-background:new 0 0 92 90;" xml:space="preserve">
<style type="text/css">
	.st0{fill:#E00000;}
</style>
<g>
	<g>
		<path class="st0" d="M20.7,56H2.3C1,56,0,57,0,58.2v29.7C0,89.1,1,90,2.3,90h18.4c1.3,0,2.3-1,2.3-2.2V58.2C23,57,22,56,20.7,56z
			 M19,86H4V60h15V86z M54.7,0H36.3C35,0,34,1,34,2.3v85.5c0,1.3,1,2.3,2.3,2.3h18.4c1.3,0,2.3-1,2.3-2.3V2.3C57,1,56,0,54.7,0z
			 M53,86H38V4h15V86z M89.7,22H71.3c-1.3,0-2.3,1-2.3,2.3v63.4c0,1.3,1,2.3,2.3,2.3h18.4c1.3,0,2.3-1,2.3-2.3V24.3
			C92,23.1,91,22,89.7,22z M88,86H73V26h15V86z"/>
	</g>
</g>
</svg>
