<?xml version="1.0" encoding="utf-8"?>
<!-- Generator: Adobe Illustrator 19.2.1, SVG Export Plug-In . SVG Version: 6.00 Build 0)  -->
<svg version="1.1" id="Layer_1" xmlns="http://www.w3.org/2000/svg" xmlns:xlink="http://www.w3.org/1999/xlink" x="0px" y="0px"
	 viewBox="0 0 30 30" style="enable-background:new 0 0 30 30;" xml:space="preserve">
<style type="text/css">
	.st0{fill-rule:evenodd;clip-rule:evenodd;fill:#3D5A98;}
</style>
<g>
	<g>
		<path class="st0" d="M15,0C6.7,0,0,6.7,0,15c0,8.3,6.7,15,15,15c8.3,0,15-6.7,15-15C30,6.7,23.3,0,15,0z M15,28
			C7.8,28,2,22.2,2,15C2,7.8,7.8,2,15,2s13,5.8,13,13C28,22.2,22.1,28,15,28z M13.6,11.6v1.7H12v2.2h1.6V21h2.3v-5.5h1.6l0.5-2.2
			h-2.1v-1.7c0-0.7,0.9-0.7,0.9-0.7H18V9h-2.5C13.4,9.4,13.6,11.6,13.6,11.6z"/>
	</g>
</g>
</svg>
