<?xml version="1.0" encoding="utf-8"?>
<!-- Generator: Adobe Illustrator 19.2.1, SVG Export Plug-In . SVG Version: 6.00 Build 0)  -->
<svg version="1.1" id="Layer_1" xmlns="http://www.w3.org/2000/svg" xmlns:xlink="http://www.w3.org/1999/xlink" x="0px" y="0px"
	 viewBox="0 0 75 34" style="enable-background:new 0 0 75 34;" xml:space="preserve">
<style type="text/css">
	.st0{fill-rule:evenodd;clip-rule:evenodd;fill:#FFF000;}
	.st1{fill-rule:evenodd;clip-rule:evenodd;}
</style>
<path class="st0" d="M37,1h1v32h-1V1z"/>
<path class="st0" d="M72.5,0h-70C1.1,0,0,1.1,0,2.5v29C0,32.9,1.1,34,2.5,34h70c1.4,0,2.5-1.1,2.5-2.5v-29C75,1.1,73.9,0,72.5,0z
	 M73,30.5c0,0.8-0.7,1.5-1.5,1.5h-68C2.7,32,2,31.3,2,30.5v-27C2,2.7,2.7,2,3.5,2h68C72.3,2,73,2.7,73,3.5V30.5z"/>
<path class="st1" d="M60,17l-7,7l-1-1l6-6l-6-6l1-1L60,17"/>
<path class="st1" d="M14,17l7,7l1-1l-6-6l6-6l-1-1L14,17"/>
</svg>
