<?xml version="1.0" encoding="utf-8"?>
<!-- Generator: Adobe Illustrator 19.2.1, SVG Export Plug-In . SVG Version: 6.00 Build 0)  -->
<svg version="1.1" id="Layer_1" xmlns="http://www.w3.org/2000/svg" xmlns:xlink="http://www.w3.org/1999/xlink" x="0px" y="0px"
	 viewBox="0 0 30 30" style="enable-background:new 0 0 30 30;" xml:space="preserve">
<style type="text/css">
	.st0{fill-rule:evenodd;clip-rule:evenodd;fill:#EE1C1B;}
</style>
<g>
	<g>
		<path class="st0" d="M21.3,10.7c-0.5-0.6-1.1-0.6-1.4-0.6C17.9,10,15,10,15,10h0c0,0-2.9,0-4.9,0.1c-0.3,0-0.9,0-1.4,0.6
			c-0.4,0.4-0.6,1.4-0.6,1.4S8,13.3,8,14.4v1.1c0,1.2,0.1,2.3,0.1,2.3s0.1,1,0.6,1.4c0.5,0.6,1.2,0.5,1.5,0.6C11.4,20,15,20,15,20
			s2.9,0,4.9-0.1c0.3,0,0.9,0,1.4-0.6c0.4-0.4,0.6-1.4,0.6-1.4s0.1-1.2,0.1-2.3v-1.1c0-1.2-0.1-2.3-0.1-2.3S21.7,11.2,21.3,10.7z
			 M13.6,16.9V13l3.7,1.9L13.6,16.9z M15,0C6.7,0,0,6.7,0,15c0,8.3,6.7,15,15,15c8.3,0,15-6.7,15-15C30,6.7,23.3,0,15,0z M15,28
			C7.8,28,2,22.2,2,15C2,7.8,7.8,2,15,2s13,5.8,13,13C28,22.2,22.2,28,15,28z"/>
	</g>
</g>
</svg>
